<svg width="1280" height="640" viewBox="0 0 1280 640" fill="none" xmlns="http://www.w3.org/2000/svg">
  <defs>
    <linearGradient id="bg" x1="124" y1="44" x2="1146" y2="594" gradientUnits="userSpaceOnUse">
      <stop stop-color="#150E11"/>
      <stop offset="0.5" stop-color="#2B1622"/>
      <stop offset="1" stop-color="#4B1F16"/>
    </linearGradient>
    <linearGradient id="accent" x1="926" y1="112" x2="301" y2="497" gradientUnits="userSpaceOnUse">
      <stop stop-color="#FFB65E"/>
      <stop offset="1" stop-color="#FF5D5D"/>
    </linearGradient>
  </defs>
  <rect width="1280" height="640" rx="28" fill="url(#bg)"/>
  <circle cx="1028" cy="146" r="118" fill="#FF7A3D" fill-opacity="0.18"/>
  <circle cx="1110" cy="106" r="58" fill="#FFD16B" fill-opacity="0.2"/>
  <circle cx="240" cy="540" r="136" fill="#8A2A2A" fill-opacity="0.18"/>
  <rect x="64" y="56" width="1152" height="528" rx="24" stroke="white" stroke-opacity="0.12"/>
  <text x="100" y="120" fill="#FFD37A" font-size="18" font-family="Georgia, 'Times New Roman', serif" letter-spacing="5">ROTTENPEN SKILL</text>
  <text x="98" y="230" fill="#FFF5EA" font-size="78" font-weight="700" font-family="'PingFang SC','Noto Serif SC','Source Han Serif SC',serif">卢本伟</text>
  <text x="98" y="314" fill="url(#accent)" font-size="78" font-weight="700" font-family="'PingFang SC','Noto Serif SC','Source Han Serif SC',serif">Skill</text>
  <text x="102" y="392" fill="#F2DED0" font-size="28" font-family="'PingFang SC','Noto Sans SC',sans-serif">直播间语气 · 嘴硬翻车 · 节目效果</text>
  <text x="102" y="454" fill="#FFE6C5" font-size="30" font-family="'PingFang SC','Noto Serif SC','Source Han Serif SC',serif">“兄弟们，这波不是问题。”</text>
  <text x="102" y="516" fill="#D4B7AA" font-size="20" font-family="'PingFang SC','Noto Sans SC',sans-serif">把开哥式的情绪节奏、口癖和互动感，蒸馏成一个可控的中文风格 Skill</text>
  <path d="M954 128C1000 170 1032 214 1041 266C1051 321 1032 376 984 424" stroke="url(#accent)" stroke-width="6" stroke-linecap="round" opacity="0.75"/>
  <path d="M1016 116C1055 149 1085 193 1098 248C1112 308 1104 359 1076 401" stroke="#FFD37A" stroke-width="2.5" stroke-linecap="round" opacity="0.75"/>
  <rect x="98" y="544" width="172" height="40" rx="20" fill="white" fill-opacity="0.08"/>
  <text x="127" y="570" fill="#FFF2E3" font-size="18" font-family="'PingFang SC','Noto Sans SC',sans-serif">虚构风格 Skill</text>
</svg>
